<?xml version="1.0" encoding="utf-8"?>
<!-- Generator: Adobe Illustrator 26.5.0, SVG Export Plug-In . SVG Version: 6.00 Build 0)  -->
<svg version="1.1" id="Vrstva_1" xmlns="http://www.w3.org/2000/svg" xmlns:xlink="http://www.w3.org/1999/xlink" x="0px" y="0px"
	 viewBox="0 0 175 200" style="enable-background:new 0 0 175 200;" xml:space="preserve">
<style type="text/css">
	.st0{fill:url(#SVGID_1_);}
	.st1{fill:url(#SVGID_00000085226813353381910510000003842185650464264122_);}
</style>
<linearGradient id="SVGID_1_" gradientUnits="userSpaceOnUse" x1="87.45" y1="4.8141" x2="87.45" y2="199.0859" gradientTransform="matrix(1 0 0 -1 0 202)">
	<stop  offset="3.448171e-04" style="stop-color:#646464"/>
	<stop  offset="0.3557" style="stop-color:#3C3C3C"/>
	<stop  offset="0.7823" style="stop-color:#111111"/>
	<stop  offset="1" style="stop-color:#000000"/>
</linearGradient>
<path class="st0" d="M172.4,145.3V54.7c0-2.2-1.2-4.4-3.2-5.5L90.6,3.8c-1.9-1.2-4.4-1.2-6.3,0L5.7,49.1c-1.9,1.2-3.2,3.2-3.2,5.5
	v90.8c0,2.2,1.2,4.4,3.2,5.5l78.6,45.3c1.9,1.2,4.4,1.2,6.3,0l78.6-45.3C171.3,149.7,172.4,147.7,172.4,145.3z"/>
<linearGradient id="SVGID_00000152240261801262130760000003215123874004955274_" gradientUnits="userSpaceOnUse" x1="28.7591" y1="160.738" x2="146.282" y2="43.2151" gradientTransform="matrix(1 0 0 -1 0 202)">
	<stop  offset="3.448171e-04" style="stop-color:#646464"/>
	<stop  offset="0.3557" style="stop-color:#3C3C3C"/>
	<stop  offset="0.7823" style="stop-color:#111111"/>
	<stop  offset="1" style="stop-color:#000000"/>
</linearGradient>
<path style="fill:url(#SVGID_00000152240261801262130760000003215123874004955274_);" d="M162.6,140V60c0-2.1-1.2-4.1-3-5.1L90.5,15
	c-1.8-1.1-4.1-1.1-5.9,0L15.4,55c-1.8,1.1-3,3-3,5.1V140c0,2.1,1.2,4.1,3,5.1l69.2,40c1.8,1.1,4.1,1.1,5.9,0l69.2-40
	C161.5,144,162.6,142,162.6,140z"/>
</svg>
