<?xml version="1.0" encoding="utf-8"?>
<!-- Generator: Adobe Illustrator 26.5.0, SVG Export Plug-In . SVG Version: 6.00 Build 0)  -->
<svg version="1.1" id="Vrstva_1" xmlns="http://www.w3.org/2000/svg" xmlns:xlink="http://www.w3.org/1999/xlink" x="0px" y="0px"
	 viewBox="0 0 175 200" style="enable-background:new 0 0 175 200;" xml:space="preserve">
<style type="text/css">
	.st0{fill:url(#SVGID_1_);}
	.st1{fill:url(#SVGID_00000029041235340540496900000006351717550773614010_);}
</style>
<g>
	
		<linearGradient id="SVGID_1_" gradientUnits="userSpaceOnUse" x1="87.45" y1="4.8141" x2="87.45" y2="199.0859" gradientTransform="matrix(1 0 0 -1 0 202)">
		<stop  offset="1.963193e-04" style="stop-color:#73EBF8"/>
		<stop  offset="0.9994" style="stop-color:#075E80"/>
	</linearGradient>
	<path class="st0" d="M172.4,145.3V54.7c0-2.2-1.2-4.4-3.2-5.5L90.6,3.8c-1.9-1.2-4.4-1.2-6.3,0L5.7,49.1c-1.9,1.2-3.2,3.2-3.2,5.5
		v90.8c0,2.2,1.2,4.4,3.2,5.5l78.6,45.3c1.9,1.2,4.4,1.2,6.3,0l78.6-45.3C171.3,149.7,172.4,147.7,172.4,145.3z"/>
	
		<linearGradient id="SVGID_00000041289750282494917620000004069257419389278366_" gradientUnits="userSpaceOnUse" x1="87.4985" y1="16.0519" x2="87.4985" y2="187.8481" gradientTransform="matrix(1 0 0 -1 0 202)">
		<stop  offset="5.549794e-04" style="stop-color:#075E80"/>
		<stop  offset="0.9998" style="stop-color:#73EBF8"/>
	</linearGradient>
	<path style="fill:url(#SVGID_00000041289750282494917620000004069257419389278366_);" d="M162.6,140V60c0-2.1-1.2-4.1-3-5.1
		L90.5,15c-1.8-1.1-4.1-1.1-5.9,0L15.4,55c-1.8,1.1-3,3-3,5.1V140c0,2.1,1.2,4.1,3,5.1l69.2,40c1.8,1.1,4.1,1.1,5.9,0l69.2-40
		C161.5,144,162.6,142,162.6,140z"/>
</g>
</svg>
