<?xml version="1.0" encoding="utf-8"?>
<!-- Generator: Adobe Illustrator 26.5.0, SVG Export Plug-In . SVG Version: 6.00 Build 0)  -->
<svg version="1.1" id="Vrstva_1" xmlns="http://www.w3.org/2000/svg" xmlns:xlink="http://www.w3.org/1999/xlink" x="0px" y="0px"
	 viewBox="0 0 175 200" style="enable-background:new 0 0 175 200;" xml:space="preserve">
<style type="text/css">
	.st0{fill:#999999;}
	.st1{fill:#FFFFFF;}
</style>
<path class="st0" d="M172.4,145.3V54.7c0-2.2-1.2-4.4-3.2-5.5L90.6,3.8c-1.9-1.2-4.4-1.2-6.3,0L5.7,49.1c-1.9,1.2-3.2,3.2-3.2,5.5
	v90.8c0,2.2,1.2,4.4,3.2,5.5l78.6,45.3c1.9,1.2,4.4,1.2,6.3,0l78.6-45.3C171.3,149.7,172.4,147.7,172.4,145.3z"/>
<path class="st1" d="M165.4,141.4V58.5c0-2.1-1.3-4.3-3.1-5.3L90.6,11.9c-1.9-1.2-4.3-1.2-6.1,0L12.7,53.3c-1.9,1.2-3.1,3.1-3.1,5.3
	v82.8c0,2.1,1.3,4.3,3.1,5.3l71.7,41.4c1.9,1.2,4.3,1.2,6.1,0l71.7-41.4C164.2,145.6,165.4,143.6,165.4,141.4z"/>
</svg>
