<?xml version="1.0" encoding="utf-8"?>
<!-- Generator: Adobe Illustrator 26.5.0, SVG Export Plug-In . SVG Version: 6.00 Build 0)  -->
<svg version="1.1" id="Vrstva_1" xmlns="http://www.w3.org/2000/svg" xmlns:xlink="http://www.w3.org/1999/xlink" x="0px" y="0px"
	 viewBox="0 0 175 200" style="enable-background:new 0 0 175 200;" xml:space="preserve">
<style type="text/css">
	.st0{fill:url(#SVGID_1_);}
	.st1{fill:url(#SVGID_00000034789821304908570690000014868091794598013339_);}
</style>
<linearGradient id="SVGID_1_" gradientUnits="userSpaceOnUse" x1="87.45" y1="4.8141" x2="87.45" y2="199.0859" gradientTransform="matrix(1 0 0 -1 0 202)">
	<stop  offset="0" style="stop-color:#D2D2D2"/>
	<stop  offset="0.256" style="stop-color:#D0D0D0"/>
	<stop  offset="0.4012" style="stop-color:#C7C7C7"/>
	<stop  offset="0.5187" style="stop-color:#B9B9B9"/>
	<stop  offset="0.6215" style="stop-color:#A6A6A6"/>
	<stop  offset="0.7145" style="stop-color:#8C8C8C"/>
	<stop  offset="0.8006" style="stop-color:#6D6D6D"/>
	<stop  offset="0.8814" style="stop-color:#474747"/>
	<stop  offset="0.9559" style="stop-color:#1D1D1D"/>
	<stop  offset="1" style="stop-color:#000000"/>
</linearGradient>
<path class="st0" d="M172.4,145.3V54.7c0-2.2-1.2-4.4-3.2-5.5L90.6,3.8c-1.9-1.2-4.4-1.2-6.3,0L5.7,49.1c-1.9,1.2-3.2,3.2-3.2,5.5
	v90.8c0,2.2,1.2,4.4,3.2,5.5l78.6,45.3c1.9,1.2,4.4,1.2,6.3,0l78.6-45.3C171.3,149.7,172.4,147.7,172.4,145.3z"/>
<linearGradient id="SVGID_00000044857338647764038160000008814969746176728964_" gradientUnits="userSpaceOnUse" x1="28.7591" y1="160.738" x2="146.282" y2="43.2151" gradientTransform="matrix(1 0 0 -1 0 202)">
	<stop  offset="0" style="stop-color:#FFFFFF"/>
	<stop  offset="0.3726" style="stop-color:#FDFDFD"/>
	<stop  offset="0.5069" style="stop-color:#F6F6F6"/>
	<stop  offset="0.6026" style="stop-color:#EBEBEB"/>
	<stop  offset="0.68" style="stop-color:#DADADA"/>
	<stop  offset="0.7463" style="stop-color:#C4C4C4"/>
	<stop  offset="0.805" style="stop-color:#A8A8A8"/>
	<stop  offset="0.8581" style="stop-color:#888888"/>
	<stop  offset="0.9069" style="stop-color:#626262"/>
	<stop  offset="0.9523" style="stop-color:#373737"/>
	<stop  offset="0.9926" style="stop-color:#090909"/>
	<stop  offset="1" style="stop-color:#000000"/>
</linearGradient>
<path style="fill:url(#SVGID_00000044857338647764038160000008814969746176728964_);" d="M162.6,140V60c0-2.1-1.2-4.1-3-5.1L90.5,15
	c-1.8-1.1-4.1-1.1-5.9,0L15.4,55c-1.8,1.1-3,3-3,5.1V140c0,2.1,1.2,4.1,3,5.1l69.2,40c1.8,1.1,4.1,1.1,5.9,0l69.2-40
	C161.5,144,162.6,142,162.6,140z"/>
</svg>
